Coordinates
version=1
nRows=14
nColumns=63
inDegrees=yes

Units are S.I. units (second, meters, Newtons, ...)
If the header above contains a line with 'inDegrees', this indicates whether rotational values are in degrees (yes) or radians (no).

endheader
time	pelvis_tilt	pelvis_list	pelvis_rotation	pelvis_tx	pelvis_ty	pelvis_tz	hip_flexion_r	hip_adduction_r	hip_rotation_r	knee_angle_r	knee_angle_r_beta	ankle_angle_r	subtalar_angle_r	mtp_angle_r	hip_flexion_l	hip_adduction_l	hip_rotation_l	knee_angle_l	knee_angle_l_beta	ankle_angle_l	subtalar_angle_l	mtp_angle_l	L5_S1_Flex_Ext	L5_S1_Lat_Bending	L5_S1_axial_rotation	L4_L5_Flex_Ext	L4_L5_Lat_Bending	L4_L5_axial_rotation	L3_L4_Flex_Ext	L3_L4_Lat_Bending	L3_L4_axial_rotation	L2_L3_Flex_Ext	L2_L3_Lat_Bending	L2_L3_axial_rotation	L1_L2_Flex_Ext	L1_L2_Lat_Bending	L1_L2_axial_rotation	L1_T12_Flex_Ext	L1_T12_Lat_Bending	L1_T12_axial_rotation	Abs_r3	Abs_r2	Abs_r1	Abs_t1	Abs_t2	neck_flexion	neck_bending	neck_rotation	arm_flex_r	arm_add_r	arm_rot_r	elbow_flex_r	pro_sup_r	wrist_flex_r	wrist_dev_r	arm_flex_l	arm_add_l	arm_rot_l	elbow_flex_l	pro_sup_l	wrist_flex_l	wrist_dev_l
1.723404	0.526423	-4.055321	84.384021	0.211272	0.986904	0.485671	-1.674441	1.084952	1.031995	12.109424	0.211349	31.959960	1.734758	0.000000	-4.917689	0.359108	-12.563672	7.704870	0.134475	34.779276	6.172057	0.000000	-0.308645	0.127523	1.386959	-0.573185	0.169606	1.473644	-0.507073	0.310060	1.473644	-0.352751	0.310060	1.213589	-0.286608	0.260045	1.126904	-0.176360	0.197533	1.040219	-2.204623	1.442567	7.713848	0.000000	0.000000	12.978272	4.666070	-3.047232	-18.605049	-16.069247	-26.604894	129.953008	57.320922	-2.943194	1.893957	-22.230592	-8.141722	-34.100695	119.265572	72.545813	-1.146388	-13.628570
1.744681	0.481677	-3.948198	84.617166	0.211611	0.986269	0.487180	-1.629098	1.102799	0.896249	12.243051	0.213682	32.372221	1.642934	0.000000	-4.879147	0.373875	-12.078198	7.775818	0.135714	34.895586	5.664814	0.000000	-0.331887	0.100111	1.340820	-0.616347	0.133148	1.424621	-0.545257	0.243410	1.424621	-0.379314	0.243410	1.173218	-0.308190	0.204146	1.089416	-0.189640	0.155072	1.005615	-2.370636	1.132475	7.457239	0.000000	0.000000	12.899146	4.996031	-3.034521	-18.838061	-13.936605	-20.812087	132.150578	57.514588	-4.537506	3.096013	-23.932059	-6.709393	-30.095044	121.210382	73.404184	-1.153690	-17.097176
1.765957	0.411246	-3.830874	85.016491	0.211945	0.985822	0.488589	-1.625686	1.116875	0.639402	12.331359	0.215223	32.762415	1.528557	0.000000	-4.828185	0.392080	-11.457905	7.870877	0.137373	34.965906	5.148636	0.000000	-0.352947	0.064956	1.251259	-0.655458	0.086391	1.329463	-0.579857	0.157933	1.329463	-0.403383	0.157933	1.094852	-0.327747	0.132457	1.016648	-0.201674	0.100616	0.938444	-2.521066	0.734791	6.959128	0.000000	0.000000	12.789666	5.376275	-3.120926	-18.274529	-11.998633	-14.876137	133.397022	58.164276	-5.928185	4.549851	-25.015171	-5.826226	-25.894442	122.807184	74.521214	-1.060390	-20.191107
1.787234	0.321236	-3.716243	85.550645	0.212275	0.985575	0.489855	-1.661843	1.127730	0.257501	12.355458	0.215643	33.104587	1.439910	0.000000	-4.757619	0.408392	-10.756682	7.983724	0.139342	34.991341	4.668466	0.000000	-0.369697	0.023670	1.114626	-0.686564	0.031481	1.184290	-0.607375	0.057550	1.184290	-0.422527	0.057550	0.975297	-0.343301	0.048267	0.905633	-0.211245	0.036664	0.835969	-2.640709	0.267755	6.199214	0.000000	0.000000	12.658575	5.806333	-3.273124	-16.819353	-10.172330	-8.953384	133.682232	59.365742	-6.915152	6.203980	-25.452706	-5.472485	-21.620844	124.194505	75.469467	-1.009232	-22.386372
1.808511	0.205320	-3.620024	86.212779	0.212539	0.985531	0.490948	-1.724351	1.124917	-0.223581	12.315238	0.214941	33.367218	1.324881	0.000000	-4.653592	0.437266	-9.950878	8.109872	0.141544	34.953295	4.190635	0.000000	-0.378894	-0.022222	0.927390	-0.703644	-0.029556	0.985352	-0.622485	-0.054031	0.985352	-0.433038	-0.054031	0.811466	-0.351841	-0.045316	0.753504	-0.216500	-0.034422	0.695543	-2.706402	-0.251382	5.157866	0.000000	0.000000	12.483212	6.246698	-3.424182	-14.459220	-8.451853	-3.168188	133.071564	61.182332	-7.542481	8.134768	-25.195161	-5.574388	-17.486186	125.352357	76.106476	-0.749122	-23.712913
1.829787	0.080187	-3.520702	86.922307	0.212779	0.985715	0.491888	-1.824171	1.115325	-0.756649	12.227795	0.213415	33.550650	1.222988	0.000000	-4.542281	0.461681	-9.209000	8.257811	0.144126	34.881112	3.847556	0.000000	-0.384304	-0.068716	0.708313	-0.713690	-0.091393	0.752583	-0.631372	-0.167077	0.752583	-0.439221	-0.167077	0.619774	-0.356864	-0.140126	0.575505	-0.219591	-0.106441	0.531235	-2.745042	-0.777332	3.939427	0.000000	0.000000	12.267285	6.674522	-3.501203	-11.355497	-6.912659	2.335208	131.703199	63.466369	-7.996980	10.059282	-24.186755	-6.038066	-13.565273	126.311578	76.587094	-0.821795	-24.107701
1.851064	-0.048444	-3.443192	87.680974	0.212905	0.986112	0.492633	-1.934426	1.100731	-1.346462	12.102126	0.211222	33.633275	1.109522	0.000000	-4.395009	0.479599	-8.505071	8.439641	0.147300	34.770077	3.613432	0.000000	-0.379077	-0.111611	0.459079	-0.703984	-0.148442	0.487771	-0.622786	-0.271371	0.487771	-0.433247	-0.271371	0.401694	-0.352011	-0.227597	0.373002	-0.216605	-0.172885	0.344309	-2.707710	-1.262564	2.553258	0.000000	0.000000	11.939345	7.011533	-3.378661	-7.688260	-5.594867	7.386706	129.777162	66.158329	-8.374811	12.043215	-22.411608	-6.734016	-10.023835	127.073775	77.014266	-1.176243	-23.616567
1.872340	-0.142589	-3.344329	88.425797	0.212880	0.986774	0.493185	-2.104147	1.109220	-1.954351	11.928636	0.208194	33.594212	1.019279	0.000000	-4.271295	0.464745	-7.862364	8.644456	0.150874	34.636916	3.450388	0.000000	-0.369728	-0.143812	0.203132	-0.686622	-0.191270	0.215827	-0.607426	-0.349664	0.215827	-0.422562	-0.349664	0.177740	-0.343329	-0.293261	0.165044	-0.211262	-0.222764	0.152349	-2.640929	-1.626828	1.129757	0.000000	0.000000	11.499990	7.207810	-3.009654	-3.620348	-4.526452	11.744618	127.440222	69.122343	-8.602249	13.890295	-19.854132	-7.462343	-6.936542	127.623127	77.470177	-1.861485	-22.195370
1.893617	-0.204166	-3.218672	89.104554	0.212703	0.987681	0.493508	-2.333639	1.129452	-2.545514	11.720536	0.204562	33.452128	0.974381	0.000000	-4.198668	0.431204	-7.317394	8.843566	0.154349	34.483165	3.351283	0.000000	-0.355337	-0.164805	-0.042407	-0.659896	-0.219190	-0.045057	-0.583783	-0.400706	-0.045057	-0.406114	-0.400706	-0.037106	-0.329966	-0.336070	-0.034456	-0.203039	-0.255282	-0.031805	-2.538134	-1.864304	-0.235854	0.000000	0.000000	10.914855	7.225841	-2.430935	0.696945	-3.663767	15.268304	124.789534	72.095909	-8.770296	15.329437	-16.591799	-8.064788	-4.328543	127.877851	77.896312	-2.842176	-20.030674
1.914894	-0.233634	-3.058826	89.683848	0.212407	0.988793	0.493635	-2.618432	1.157254	-3.102871	11.495728	0.200638	33.232051	0.987107	0.000000	-4.193623	0.385198	-6.913046	9.020608	0.157439	34.320492	3.314776	0.000000	-0.336671	-0.175460	-0.264845	-0.625232	-0.233361	-0.281398	-0.553117	-0.426613	-0.281398	-0.384781	-0.426613	-0.231740	-0.312633	-0.357797	-0.215187	-0.192374	-0.271787	-0.198634	-2.404807	-1.984835	-1.472991	0.000000	0.000000	10.199904	7.065801	-1.705089	5.132773	-2.920394	17.899175	121.847426	74.773233	-8.878398	16.021428	-12.710512	-8.475786	-2.112982	127.691014	77.884424	-3.981545	-17.522994
1.936170	-0.235465	-2.842191	90.143143	0.212021	0.990068	0.493628	-2.974919	1.186603	-3.609401	11.258928	0.196505	32.965510	1.078262	0.000000	-4.286194	0.334500	-6.651242	9.157674	0.159832	34.149375	3.337586	0.000000	-0.318051	-0.177825	-0.455073	-0.590652	-0.236507	-0.483515	-0.522525	-0.432364	-0.483515	-0.363500	-0.432364	-0.398189	-0.295342	-0.362621	-0.369747	-0.181734	-0.275451	-0.341304	-2.271803	-2.011592	-2.530978	0.000000	0.000000	9.407650	6.744496	-0.900262	9.598822	-2.189095	19.592758	118.607764	77.180987	-8.780530	15.845301	-8.295627	-8.691016	-0.198677	126.961022	77.375221	-5.209737	-14.837620
1.957447	-0.218624	-2.584199	90.452743	0.211589	0.991419	0.493525	-3.369742	1.207603	-4.032486	11.034311	0.192585	32.690834	1.256969	0.000000	-4.460812	0.289778	-6.563305	9.251356	0.161467	33.985070	3.417831	0.000000	-0.296717	-0.174003	-0.599809	-0.551034	-0.231424	-0.637297	-0.487477	-0.423071	-0.637297	-0.339118	-0.423071	-0.524833	-0.275532	-0.354827	-0.487345	-0.169544	-0.269531	-0.449857	-2.119422	-1.968360	-3.335959	0.000000	0.000000	8.546453	6.300604	-0.088768	14.016114	-1.403393	20.418257	115.031538	79.533364	-8.543883	14.713763	-3.429907	-8.751050	1.487955	125.583985	76.432908	-6.354863	-12.085232
1.978723	-0.191390	-2.280989	90.606270	0.211135	0.992782	0.493373	-3.802946	1.211312	-4.364130	10.821299	0.188867	32.433100	1.529701	0.000000	-4.717957	0.259632	-6.643530	9.305857	0.162418	33.835541	3.552348	0.000000	-0.276327	-0.166401	-0.695938	-0.513168	-0.221314	-0.739434	-0.453978	-0.404588	-0.739434	-0.315815	-0.404588	-0.608946	-0.256598	-0.339326	-0.565449	-0.157893	-0.257756	-0.521953	-1.973779	-1.882365	-3.870598	0.000000	0.000000	7.696840	5.769094	0.646817	18.374299	-0.585857	20.487473	111.108671	81.994439	-8.145274	12.955493	1.783705	-8.682983	2.992154	123.509112	74.927855	-7.270656	-9.378105
2.000000	-0.139182	-1.944485	90.614947	0.210656	0.994097	0.493199	-4.252903	1.208882	-4.643874	10.638799	0.185682	32.217770	1.930399	0.000000	-5.048592	0.232234	-6.839339	9.313675	0.162554	33.701736	3.691786	0.000000	-0.257053	-0.152411	-0.737349	-0.477372	-0.202706	-0.783434	-0.422312	-0.370571	-0.783434	-0.293785	-0.370571	-0.645181	-0.238699	-0.310796	-0.599096	-0.146880	-0.236084	-0.553012	-1.836101	-1.724100	-4.100916	0.000000	0.000000	6.861836	5.172084	1.359593	22.653071	0.196770	19.949923	106.811071	84.914051	-7.881486	10.786093	7.275421	-8.535517	4.438316	120.615331	72.794531	-8.036696	-7.091383
